<?xml version="1.0" standalone="no"?>
<!DOCTYPE svg PUBLIC "-//W3C//DTD SVG 20010904//EN"
 "http://www.w3.org/TR/2001/REC-SVG-20010904/DTD/svg10.dtd">
<svg version="1.0" xmlns="http://www.w3.org/2000/svg"
 width="1024.000000pt" height="1024.000000pt" viewBox="0 0 1024.000000 1024.000000"
 preserveAspectRatio="xMidYMid meet">
<metadata>
Created by potrace 1.14, written by Peter Selinger 2001-2017
</metadata>
<g transform="translate(0.000000,1024.000000) scale(0.100000,-0.100000)"
fill="#000000" stroke="none">
<path d="M3845 8249 c-97 -6 -123 -17 -163 -64 -43 -53 -58 -112 -43 -172 15
-57 266 -944 280 -988 6 -16 22 -73 36 -125 15 -52 30 -108 35 -125 4 -16 25
-86 45 -155 40 -138 74 -257 79 -280 2 -8 23 -80 46 -160 23 -80 49 -175 59
-211 l18 -66 -629 0 -629 0 -87 117 c-48 65 -97 130 -109 146 -12 16 -83 112
-158 214 -189 255 -206 275 -258 293 -62 21 -585 21 -637 0 -63 -25 -113 -97
-123 -178 -2 -16 4 -59 15 -95 10 -36 27 -94 37 -130 21 -75 166 -563 187
-630 7 -25 45 -152 83 -283 l70 -238 -93 -317 c-52 -174 -120 -405 -151 -512
-31 -107 -61 -204 -65 -215 -25 -63 -83 -286 -83 -321 0 -82 60 -165 139 -192
42 -14 581 -12 614 2 65 27 79 44 378 449 29 40 68 92 87 117 19 25 61 82 94
126 l60 81 613 1 c337 0 620 -2 629 -4 14 -4 4 -45 -63 -282 -43 -152 -87
-306 -98 -342 -11 -36 -80 -281 -155 -545 -75 -264 -140 -493 -146 -510 -29
-94 -118 -416 -123 -449 -8 -49 9 -106 46 -151 56 -67 53 -67 549 -67 491 0
490 0 542 62 20 23 111 177 218 367 13 23 71 125 129 225 58 101 112 196 121
213 9 16 98 174 199 350 234 409 457 799 485 850 13 22 54 94 92 160 l69 120
744 2 c627 1 760 4 842 17 104 17 258 63 348 103 30 14 71 32 90 41 65 29 196
110 278 171 232 172 318 398 233 617 -64 166 -218 304 -486 439 -66 33 -138
68 -160 77 -52 21 -199 65 -250 74 -22 5 -42 9 -45 9 -55 13 -263 17 -852 17
-392 0 -721 2 -730 4 -9 3 -29 26 -44 52 -14 26 -38 67 -52 92 -14 25 -97 171
-185 325 -88 154 -169 296 -180 315 -10 19 -45 80 -77 135 -31 55 -72 127 -90
160 -18 33 -40 72 -49 87 -38 65 -467 816 -485 848 -44 81 -131 227 -154 258
-14 18 -43 42 -65 53 -37 20 -60 21 -416 22 -207 1 -412 0 -456 -4z"/>
</g>
</svg>
